<svg width="12" height="13" viewBox="0 0 12 13" fill="none" xmlns="http://www.w3.org/2000/svg">
<circle cx="5.99998" cy="6.49998" r="5.54998" stroke="#E2005E" stroke-width="0.899997"/>
<path fill-rule="evenodd" clip-rule="evenodd" d="M6.00002 3.49998C6.33139 3.49998 6.60002 3.76861 6.60002 4.09998V7.09997C6.60002 7.43133 6.33139 7.69996 6.00002 7.69996C5.66865 7.69996 5.40002 7.43133 5.40002 7.09997V4.09998C5.40002 3.76861 5.66865 3.49998 6.00002 3.49998ZM5.43626 9.05972C5.43626 8.72835 5.70489 8.45973 6.03626 8.45973H6.04426C6.37563 8.45973 6.64426 8.72835 6.64426 9.05972C6.64426 9.39109 6.37563 9.65972 6.04426 9.65972H6.03626C5.70489 9.65972 5.43626 9.39109 5.43626 9.05972Z" fill="#E2005E"/>
</svg>
