<svg fill="black" width="14" height="15" viewBox="0 0 14 15"  xmlns="http://www.w3.org/2000/svg">
  <path fill-rule="evenodd" clip-rule="evenodd"
    d="M7.00001 1.50201C3.68741 1.50201 1.00201 4.1874 1.00201 7.5C1.00201 10.8126 3.68741 13.498 7.00001 13.498C10.3126 13.498 12.998 10.8126 12.998 7.5C12.998 4.1874 10.3126 1.50201 7.00001 1.50201ZM0.00201416 7.5C0.00201416 3.63511 3.13512 0.502007 7.00001 0.502007C10.8649 0.502007 13.998 3.63511 13.998 7.5C13.998 11.3649 10.8649 14.498 7.00001 14.498C3.13512 14.498 0.00201416 11.3649 0.00201416 7.5ZM5.95841 6.95862C5.95841 6.68248 6.18227 6.45862 6.45841 6.45862H6.99991C7.27605 6.45862 7.49991 6.68248 7.49991 6.95862V10.2491H7.54141C7.81755 10.2491 8.04141 10.473 8.04141 10.7491C8.04141 11.0253 7.81755 11.2491 7.54141 11.2491H6.99991C6.72377 11.2491 6.49991 11.0253 6.49991 10.7491V7.45862H6.45841C6.18227 7.45862 5.95841 7.23476 5.95841 6.95862ZM7.54157 4.52309C7.54157 4.89692 7.23853 5.19997 6.8647 5.19997C6.49087 5.19997 6.18783 4.89692 6.18783 4.52309C6.18783 4.14927 6.49087 3.84622 6.8647 3.84622C7.23853 3.84622 7.54157 4.14927 7.54157 4.52309Z" />
</svg>
